<mxfile host="app.diagrams.net" modified="2024-02-24T18:08:59.398Z" agent="Mozilla/5.0 (Windows NT 10.0; Win64; x64) AppleWebKit/537.36 (KHTML, like Gecko) Chrome/121.0.0.0 Safari/537.36" version="23.1.5" etag="K6ojbIn7w-dnGlGuB86O" type="device">
  <diagram id="X76AQZg01dkvqSlvk8ne" name="Stránka-1">
    <mxGraphModel dx="3188" dy="1728" grid="1" gridSize="10" guides="1" tooltips="1" connect="1" arrows="1" fold="1" page="1" pageScale="1" pageWidth="827" pageHeight="1169" math="0" shadow="0">
      <root>
        <mxCell id="0" />
        <mxCell id="1" parent="0" />
        <mxCell id="ofv0AlbbvvJIHnWM1D2y-1" value="&lt;h1&gt;User Case&lt;/h1&gt;&lt;p&gt;Diagram znázorňuje veškeré možné uživatelské funkce.&lt;/p&gt;" style="text;html=1;spacing=5;spacingTop=-20;whiteSpace=wrap;overflow=hidden;rounded=0;" vertex="1" parent="1">
          <mxGeometry x="260" y="10" width="190" height="80" as="geometry" />
        </mxCell>
        <mxCell id="ofv0AlbbvvJIHnWM1D2y-9" style="rounded=0;orthogonalLoop=1;jettySize=auto;html=1;exitX=1;exitY=0.3333333333333333;exitDx=0;exitDy=0;exitPerimeter=0;entryX=0;entryY=0.5;entryDx=0;entryDy=0;" edge="1" parent="1" source="ofv0AlbbvvJIHnWM1D2y-2" target="ofv0AlbbvvJIHnWM1D2y-7">
          <mxGeometry relative="1" as="geometry" />
        </mxCell>
        <mxCell id="ofv0AlbbvvJIHnWM1D2y-15" style="rounded=0;orthogonalLoop=1;jettySize=auto;html=1;exitX=1;exitY=0.3333333333333333;exitDx=0;exitDy=0;exitPerimeter=0;entryX=0;entryY=0.5;entryDx=0;entryDy=0;" edge="1" parent="1" source="ofv0AlbbvvJIHnWM1D2y-2" target="ofv0AlbbvvJIHnWM1D2y-14">
          <mxGeometry relative="1" as="geometry" />
        </mxCell>
        <mxCell id="ofv0AlbbvvJIHnWM1D2y-2" value="Uživatel" style="shape=umlActor;verticalLabelPosition=bottom;verticalAlign=top;html=1;outlineConnect=0;" vertex="1" parent="1">
          <mxGeometry x="40" y="250" width="30" height="60" as="geometry" />
        </mxCell>
        <mxCell id="ofv0AlbbvvJIHnWM1D2y-12" style="rounded=0;orthogonalLoop=1;jettySize=auto;html=1;exitX=1;exitY=0.25;exitDx=0;exitDy=0;entryX=0;entryY=0.5;entryDx=0;entryDy=0;" edge="1" parent="1" source="ofv0AlbbvvJIHnWM1D2y-7" target="ofv0AlbbvvJIHnWM1D2y-10">
          <mxGeometry relative="1" as="geometry" />
        </mxCell>
        <mxCell id="ofv0AlbbvvJIHnWM1D2y-13" style="rounded=0;orthogonalLoop=1;jettySize=auto;html=1;exitX=1;exitY=0.75;exitDx=0;exitDy=0;entryX=0;entryY=0.5;entryDx=0;entryDy=0;" edge="1" parent="1" source="ofv0AlbbvvJIHnWM1D2y-7" target="ofv0AlbbvvJIHnWM1D2y-11">
          <mxGeometry relative="1" as="geometry" />
        </mxCell>
        <mxCell id="ofv0AlbbvvJIHnWM1D2y-7" value="&lt;b&gt;Základní uživatelské funkce&lt;/b&gt;" style="rounded=0;whiteSpace=wrap;html=1;" vertex="1" parent="1">
          <mxGeometry x="160" y="170" width="120" height="30" as="geometry" />
        </mxCell>
        <mxCell id="ofv0AlbbvvJIHnWM1D2y-10" value="&lt;font style=&quot;font-size: 10px;&quot;&gt;Přihlášení se přes OAuth2&lt;/font&gt;" style="rounded=0;whiteSpace=wrap;html=1;" vertex="1" parent="1">
          <mxGeometry x="320" y="140" width="120" height="20" as="geometry" />
        </mxCell>
        <mxCell id="ofv0AlbbvvJIHnWM1D2y-11" value="&lt;font style=&quot;font-size: 10px;&quot;&gt;Odhlášení se&amp;nbsp;&lt;/font&gt;" style="rounded=0;whiteSpace=wrap;html=1;" vertex="1" parent="1">
          <mxGeometry x="320" y="175" width="120" height="20" as="geometry" />
        </mxCell>
        <mxCell id="ofv0AlbbvvJIHnWM1D2y-17" style="rounded=0;orthogonalLoop=1;jettySize=auto;html=1;exitX=1;exitY=0.25;exitDx=0;exitDy=0;entryX=0;entryY=0.5;entryDx=0;entryDy=0;" edge="1" parent="1" source="ofv0AlbbvvJIHnWM1D2y-14" target="ofv0AlbbvvJIHnWM1D2y-16">
          <mxGeometry relative="1" as="geometry" />
        </mxCell>
        <mxCell id="ofv0AlbbvvJIHnWM1D2y-28" style="rounded=0;orthogonalLoop=1;jettySize=auto;html=1;exitX=1;exitY=0.5;exitDx=0;exitDy=0;entryX=0;entryY=0.5;entryDx=0;entryDy=0;" edge="1" parent="1" source="ofv0AlbbvvJIHnWM1D2y-14" target="ofv0AlbbvvJIHnWM1D2y-27">
          <mxGeometry relative="1" as="geometry" />
        </mxCell>
        <mxCell id="ofv0AlbbvvJIHnWM1D2y-31" style="rounded=0;orthogonalLoop=1;jettySize=auto;html=1;exitX=1;exitY=0.75;exitDx=0;exitDy=0;entryX=0;entryY=0.5;entryDx=0;entryDy=0;" edge="1" parent="1" source="ofv0AlbbvvJIHnWM1D2y-14" target="ofv0AlbbvvJIHnWM1D2y-32">
          <mxGeometry relative="1" as="geometry">
            <mxPoint x="300" y="450" as="targetPoint" />
          </mxGeometry>
        </mxCell>
        <mxCell id="ofv0AlbbvvJIHnWM1D2y-14" value="&lt;b&gt;Hlavní uživatelské funkce&lt;/b&gt;" style="rounded=0;whiteSpace=wrap;html=1;" vertex="1" parent="1">
          <mxGeometry x="140" y="325" width="120" height="30" as="geometry" />
        </mxCell>
        <mxCell id="ofv0AlbbvvJIHnWM1D2y-23" style="rounded=0;orthogonalLoop=1;jettySize=auto;html=1;exitX=1;exitY=0.25;exitDx=0;exitDy=0;entryX=0;entryY=0.5;entryDx=0;entryDy=0;" edge="1" parent="1" source="ofv0AlbbvvJIHnWM1D2y-16" target="ofv0AlbbvvJIHnWM1D2y-19">
          <mxGeometry relative="1" as="geometry" />
        </mxCell>
        <mxCell id="ofv0AlbbvvJIHnWM1D2y-24" style="rounded=0;orthogonalLoop=1;jettySize=auto;html=1;exitX=1;exitY=0.5;exitDx=0;exitDy=0;entryX=0;entryY=0.5;entryDx=0;entryDy=0;" edge="1" parent="1" source="ofv0AlbbvvJIHnWM1D2y-16" target="ofv0AlbbvvJIHnWM1D2y-20">
          <mxGeometry relative="1" as="geometry" />
        </mxCell>
        <mxCell id="ofv0AlbbvvJIHnWM1D2y-16" value="&lt;b&gt;Zobrazení&lt;/b&gt;" style="rounded=0;whiteSpace=wrap;html=1;" vertex="1" parent="1">
          <mxGeometry x="320" y="260" width="120" height="20" as="geometry" />
        </mxCell>
        <mxCell id="ofv0AlbbvvJIHnWM1D2y-19" value="&lt;span style=&quot;border-color: var(--border-color);&quot;&gt;Zobrazení úkolu&amp;nbsp;&lt;/span&gt;podle Group" style="rounded=0;whiteSpace=wrap;html=1;" vertex="1" parent="1">
          <mxGeometry x="510" y="200" width="210" height="20" as="geometry" />
        </mxCell>
        <mxCell id="ofv0AlbbvvJIHnWM1D2y-20" value="Zobrazení úkolu podle Grade" style="rounded=0;whiteSpace=wrap;html=1;" vertex="1" parent="1">
          <mxGeometry x="510" y="235" width="210" height="20" as="geometry" />
        </mxCell>
        <mxCell id="ofv0AlbbvvJIHnWM1D2y-21" value="Zobrazení úkolu podle Topic" style="rounded=0;whiteSpace=wrap;html=1;" vertex="1" parent="1">
          <mxGeometry x="510" y="270" width="210" height="20" as="geometry" />
        </mxCell>
        <mxCell id="ofv0AlbbvvJIHnWM1D2y-22" value="Zobrazení úkolu podle Task" style="rounded=0;whiteSpace=wrap;html=1;" vertex="1" parent="1">
          <mxGeometry x="510" y="310" width="210" height="20" as="geometry" />
        </mxCell>
        <mxCell id="ofv0AlbbvvJIHnWM1D2y-25" style="rounded=0;orthogonalLoop=1;jettySize=auto;html=1;exitX=1;exitY=0.75;exitDx=0;exitDy=0;entryX=-0.018;entryY=0.531;entryDx=0;entryDy=0;entryPerimeter=0;" edge="1" parent="1" source="ofv0AlbbvvJIHnWM1D2y-16" target="ofv0AlbbvvJIHnWM1D2y-21">
          <mxGeometry relative="1" as="geometry" />
        </mxCell>
        <mxCell id="ofv0AlbbvvJIHnWM1D2y-26" style="rounded=0;orthogonalLoop=1;jettySize=auto;html=1;exitX=1;exitY=1;exitDx=0;exitDy=0;entryX=-0.003;entryY=0.613;entryDx=0;entryDy=0;entryPerimeter=0;" edge="1" parent="1" source="ofv0AlbbvvJIHnWM1D2y-16" target="ofv0AlbbvvJIHnWM1D2y-22">
          <mxGeometry relative="1" as="geometry" />
        </mxCell>
        <mxCell id="ofv0AlbbvvJIHnWM1D2y-27" value="&lt;b&gt;Nahrát&lt;/b&gt;" style="rounded=0;whiteSpace=wrap;html=1;" vertex="1" parent="1">
          <mxGeometry x="320" y="355" width="120" height="20" as="geometry" />
        </mxCell>
        <mxCell id="ofv0AlbbvvJIHnWM1D2y-29" value="Nahrát odpověd k Task" style="rounded=0;whiteSpace=wrap;html=1;" vertex="1" parent="1">
          <mxGeometry x="510" y="355" width="210" height="20" as="geometry" />
        </mxCell>
        <mxCell id="ofv0AlbbvvJIHnWM1D2y-30" style="rounded=0;orthogonalLoop=1;jettySize=auto;html=1;exitX=1;exitY=0.5;exitDx=0;exitDy=0;entryX=-0.017;entryY=0.433;entryDx=0;entryDy=0;entryPerimeter=0;" edge="1" parent="1" source="ofv0AlbbvvJIHnWM1D2y-27" target="ofv0AlbbvvJIHnWM1D2y-29">
          <mxGeometry relative="1" as="geometry" />
        </mxCell>
        <mxCell id="ofv0AlbbvvJIHnWM1D2y-34" style="rounded=0;orthogonalLoop=1;jettySize=auto;html=1;exitX=1;exitY=0.5;exitDx=0;exitDy=0;entryX=0;entryY=0.5;entryDx=0;entryDy=0;" edge="1" parent="1" source="ofv0AlbbvvJIHnWM1D2y-32" target="ofv0AlbbvvJIHnWM1D2y-33">
          <mxGeometry relative="1" as="geometry" />
        </mxCell>
        <mxCell id="ofv0AlbbvvJIHnWM1D2y-32" value="&lt;b&gt;Smazat&lt;/b&gt;" style="rounded=0;whiteSpace=wrap;html=1;" vertex="1" parent="1">
          <mxGeometry x="330" y="420" width="120" height="20" as="geometry" />
        </mxCell>
        <mxCell id="ofv0AlbbvvJIHnWM1D2y-33" value="Smazat odpověd k Task" style="rounded=0;whiteSpace=wrap;html=1;" vertex="1" parent="1">
          <mxGeometry x="510" y="420" width="140" height="20" as="geometry" />
        </mxCell>
        <mxCell id="ofv0AlbbvvJIHnWM1D2y-35" value="&lt;h1&gt;Vysvětlivky k UserCase&lt;/h1&gt;&lt;p&gt;&lt;br&gt;&lt;/p&gt;" style="text;html=1;spacing=5;spacingTop=-20;whiteSpace=wrap;overflow=hidden;rounded=0;" vertex="1" parent="1">
          <mxGeometry x="10" y="490" width="290" height="40" as="geometry" />
        </mxCell>
        <mxCell id="ofv0AlbbvvJIHnWM1D2y-38" value="&lt;div style=&quot;text-align: justify;&quot;&gt;&lt;span style=&quot;background-color: initial;&quot;&gt;Funkce &lt;b&gt;Zobrazení&lt;/b&gt;&amp;nbsp;umožnujě uživateli se podívat na úkoly rozdělené podle podskupin, největší rozdělovací množinou je Group, nejmenší jednotlivý úkol Task.&lt;/span&gt;&lt;/div&gt;" style="text;html=1;align=left;verticalAlign=top;whiteSpace=wrap;rounded=0;" vertex="1" parent="1">
          <mxGeometry x="10" y="530" width="300" height="50" as="geometry" />
        </mxCell>
        <mxCell id="ofv0AlbbvvJIHnWM1D2y-39" value="&lt;div style=&quot;text-align: justify;&quot;&gt;&lt;span style=&quot;font-weight: normal;&quot;&gt;Funkce &lt;/span&gt;Nahrát&lt;span style=&quot;font-weight: normal;&quot;&gt;&amp;nbsp;umožnujě uživateli nahrát řešení k specifickému úkolu.&amp;nbsp;&lt;/span&gt;&lt;/div&gt;" style="text;html=1;align=left;verticalAlign=top;whiteSpace=wrap;rounded=0;fontStyle=1" vertex="1" parent="1">
          <mxGeometry x="10" y="590" width="300" height="50" as="geometry" />
        </mxCell>
        <mxCell id="ofv0AlbbvvJIHnWM1D2y-40" value="&lt;div style=&quot;text-align: justify;&quot;&gt;&lt;span style=&quot;font-weight: normal;&quot;&gt;Funkce &lt;/span&gt;Smazat&amp;nbsp;&lt;span style=&quot;font-weight: normal;&quot;&gt;umožnujě uživateli smazat řešení k specifickému úkolu.&amp;nbsp;&lt;/span&gt;&lt;/div&gt;" style="text;html=1;align=left;verticalAlign=top;whiteSpace=wrap;rounded=0;fontStyle=1" vertex="1" parent="1">
          <mxGeometry x="10" y="650" width="300" height="40" as="geometry" />
        </mxCell>
        <mxCell id="ofv0AlbbvvJIHnWM1D2y-72" style="rounded=0;orthogonalLoop=1;jettySize=auto;html=1;exitX=1;exitY=0.3333333333333333;exitDx=0;exitDy=0;exitPerimeter=0;entryX=0;entryY=0.5;entryDx=0;entryDy=0;" edge="1" parent="1" source="ofv0AlbbvvJIHnWM1D2y-74" target="ofv0AlbbvvJIHnWM1D2y-77">
          <mxGeometry relative="1" as="geometry" />
        </mxCell>
        <mxCell id="ofv0AlbbvvJIHnWM1D2y-73" style="rounded=0;orthogonalLoop=1;jettySize=auto;html=1;exitX=1;exitY=0.3333333333333333;exitDx=0;exitDy=0;exitPerimeter=0;entryX=0;entryY=0.5;entryDx=0;entryDy=0;" edge="1" parent="1" source="ofv0AlbbvvJIHnWM1D2y-74" target="ofv0AlbbvvJIHnWM1D2y-83">
          <mxGeometry relative="1" as="geometry" />
        </mxCell>
        <mxCell id="ofv0AlbbvvJIHnWM1D2y-74" value="Admin" style="shape=umlActor;verticalLabelPosition=bottom;verticalAlign=top;html=1;outlineConnect=0;" vertex="1" parent="1">
          <mxGeometry x="910" y="250" width="30" height="60" as="geometry" />
        </mxCell>
        <mxCell id="ofv0AlbbvvJIHnWM1D2y-75" style="rounded=0;orthogonalLoop=1;jettySize=auto;html=1;exitX=1;exitY=0.25;exitDx=0;exitDy=0;entryX=0;entryY=0.5;entryDx=0;entryDy=0;" edge="1" parent="1" source="ofv0AlbbvvJIHnWM1D2y-77" target="ofv0AlbbvvJIHnWM1D2y-78">
          <mxGeometry relative="1" as="geometry" />
        </mxCell>
        <mxCell id="ofv0AlbbvvJIHnWM1D2y-76" style="rounded=0;orthogonalLoop=1;jettySize=auto;html=1;exitX=1;exitY=0.75;exitDx=0;exitDy=0;entryX=0;entryY=0.5;entryDx=0;entryDy=0;" edge="1" parent="1" source="ofv0AlbbvvJIHnWM1D2y-77" target="ofv0AlbbvvJIHnWM1D2y-79">
          <mxGeometry relative="1" as="geometry" />
        </mxCell>
        <mxCell id="ofv0AlbbvvJIHnWM1D2y-77" value="&lt;b&gt;Základní admin funkce&lt;/b&gt;" style="rounded=0;whiteSpace=wrap;html=1;" vertex="1" parent="1">
          <mxGeometry x="1030" y="170" width="120" height="30" as="geometry" />
        </mxCell>
        <mxCell id="ofv0AlbbvvJIHnWM1D2y-78" value="&lt;font style=&quot;font-size: 10px;&quot;&gt;Přihlášení se přes OAuth2&lt;/font&gt;" style="rounded=0;whiteSpace=wrap;html=1;" vertex="1" parent="1">
          <mxGeometry x="1190" y="140" width="120" height="20" as="geometry" />
        </mxCell>
        <mxCell id="ofv0AlbbvvJIHnWM1D2y-79" value="&lt;font style=&quot;font-size: 10px;&quot;&gt;Odhlášení se&amp;nbsp;&lt;/font&gt;" style="rounded=0;whiteSpace=wrap;html=1;" vertex="1" parent="1">
          <mxGeometry x="1190" y="175" width="120" height="20" as="geometry" />
        </mxCell>
        <mxCell id="ofv0AlbbvvJIHnWM1D2y-80" style="rounded=0;orthogonalLoop=1;jettySize=auto;html=1;exitX=1;exitY=0.25;exitDx=0;exitDy=0;entryX=0;entryY=0.5;entryDx=0;entryDy=0;" edge="1" parent="1" source="ofv0AlbbvvJIHnWM1D2y-83" target="ofv0AlbbvvJIHnWM1D2y-86">
          <mxGeometry relative="1" as="geometry" />
        </mxCell>
        <mxCell id="ofv0AlbbvvJIHnWM1D2y-81" style="rounded=0;orthogonalLoop=1;jettySize=auto;html=1;exitX=1;exitY=0.5;exitDx=0;exitDy=0;entryX=0;entryY=0.5;entryDx=0;entryDy=0;" edge="1" parent="1" source="ofv0AlbbvvJIHnWM1D2y-83" target="ofv0AlbbvvJIHnWM1D2y-93">
          <mxGeometry relative="1" as="geometry" />
        </mxCell>
        <mxCell id="ofv0AlbbvvJIHnWM1D2y-82" style="rounded=0;orthogonalLoop=1;jettySize=auto;html=1;exitX=1;exitY=0.75;exitDx=0;exitDy=0;entryX=0;entryY=0.5;entryDx=0;entryDy=0;" edge="1" parent="1" source="ofv0AlbbvvJIHnWM1D2y-83" target="ofv0AlbbvvJIHnWM1D2y-97">
          <mxGeometry relative="1" as="geometry">
            <mxPoint x="1170" y="450" as="targetPoint" />
          </mxGeometry>
        </mxCell>
        <mxCell id="ofv0AlbbvvJIHnWM1D2y-107" style="rounded=0;orthogonalLoop=1;jettySize=auto;html=1;exitX=1;exitY=0.75;exitDx=0;exitDy=0;entryX=0;entryY=0.5;entryDx=0;entryDy=0;" edge="1" parent="1" source="ofv0AlbbvvJIHnWM1D2y-83" target="ofv0AlbbvvJIHnWM1D2y-108">
          <mxGeometry relative="1" as="geometry">
            <mxPoint x="1220" y="470" as="targetPoint" />
          </mxGeometry>
        </mxCell>
        <mxCell id="ofv0AlbbvvJIHnWM1D2y-83" value="&lt;b&gt;Hlavní admin funkce&lt;/b&gt;" style="rounded=0;whiteSpace=wrap;html=1;" vertex="1" parent="1">
          <mxGeometry x="1010" y="325" width="120" height="30" as="geometry" />
        </mxCell>
        <mxCell id="ofv0AlbbvvJIHnWM1D2y-84" style="rounded=0;orthogonalLoop=1;jettySize=auto;html=1;exitX=1;exitY=0.25;exitDx=0;exitDy=0;entryX=0;entryY=0.5;entryDx=0;entryDy=0;" edge="1" parent="1" source="ofv0AlbbvvJIHnWM1D2y-86" target="ofv0AlbbvvJIHnWM1D2y-87">
          <mxGeometry relative="1" as="geometry" />
        </mxCell>
        <mxCell id="ofv0AlbbvvJIHnWM1D2y-85" style="rounded=0;orthogonalLoop=1;jettySize=auto;html=1;exitX=1;exitY=0.5;exitDx=0;exitDy=0;entryX=0;entryY=0.5;entryDx=0;entryDy=0;" edge="1" parent="1" source="ofv0AlbbvvJIHnWM1D2y-86" target="ofv0AlbbvvJIHnWM1D2y-88">
          <mxGeometry relative="1" as="geometry" />
        </mxCell>
        <mxCell id="ofv0AlbbvvJIHnWM1D2y-104" style="rounded=0;orthogonalLoop=1;jettySize=auto;html=1;exitX=1;exitY=1;exitDx=0;exitDy=0;entryX=0;entryY=0.5;entryDx=0;entryDy=0;" edge="1" parent="1" source="ofv0AlbbvvJIHnWM1D2y-86" target="ofv0AlbbvvJIHnWM1D2y-105">
          <mxGeometry relative="1" as="geometry">
            <mxPoint x="1380" y="360" as="targetPoint" />
          </mxGeometry>
        </mxCell>
        <mxCell id="ofv0AlbbvvJIHnWM1D2y-86" value="&lt;b&gt;Zobrazení&lt;/b&gt;" style="rounded=0;whiteSpace=wrap;html=1;" vertex="1" parent="1">
          <mxGeometry x="1190" y="260" width="120" height="20" as="geometry" />
        </mxCell>
        <mxCell id="ofv0AlbbvvJIHnWM1D2y-87" value="&lt;span style=&quot;border-color: var(--border-color);&quot;&gt;Zobrazení úkolu&amp;nbsp;&lt;/span&gt;podle Group" style="rounded=0;whiteSpace=wrap;html=1;" vertex="1" parent="1">
          <mxGeometry x="1380" y="200" width="190" height="20" as="geometry" />
        </mxCell>
        <mxCell id="ofv0AlbbvvJIHnWM1D2y-88" value="Zobrazení úkolu podle Grade" style="rounded=0;whiteSpace=wrap;html=1;" vertex="1" parent="1">
          <mxGeometry x="1380" y="235" width="190" height="20" as="geometry" />
        </mxCell>
        <mxCell id="ofv0AlbbvvJIHnWM1D2y-89" value="Zobrazení úkolu podle Topic" style="rounded=0;whiteSpace=wrap;html=1;" vertex="1" parent="1">
          <mxGeometry x="1380" y="270" width="190" height="20" as="geometry" />
        </mxCell>
        <mxCell id="ofv0AlbbvvJIHnWM1D2y-90" value="Zobrazení úkolu podle Task" style="rounded=0;whiteSpace=wrap;html=1;" vertex="1" parent="1">
          <mxGeometry x="1380" y="310" width="190" height="20" as="geometry" />
        </mxCell>
        <mxCell id="ofv0AlbbvvJIHnWM1D2y-91" style="rounded=0;orthogonalLoop=1;jettySize=auto;html=1;exitX=1;exitY=0.75;exitDx=0;exitDy=0;entryX=-0.018;entryY=0.531;entryDx=0;entryDy=0;entryPerimeter=0;" edge="1" parent="1" source="ofv0AlbbvvJIHnWM1D2y-86" target="ofv0AlbbvvJIHnWM1D2y-89">
          <mxGeometry relative="1" as="geometry" />
        </mxCell>
        <mxCell id="ofv0AlbbvvJIHnWM1D2y-92" style="rounded=0;orthogonalLoop=1;jettySize=auto;html=1;exitX=1;exitY=1;exitDx=0;exitDy=0;entryX=-0.003;entryY=0.613;entryDx=0;entryDy=0;entryPerimeter=0;" edge="1" parent="1" source="ofv0AlbbvvJIHnWM1D2y-86" target="ofv0AlbbvvJIHnWM1D2y-90">
          <mxGeometry relative="1" as="geometry" />
        </mxCell>
        <mxCell id="ofv0AlbbvvJIHnWM1D2y-93" value="&lt;b&gt;Nahrát&lt;/b&gt;" style="rounded=0;whiteSpace=wrap;html=1;" vertex="1" parent="1">
          <mxGeometry x="1230" y="415" width="120" height="20" as="geometry" />
        </mxCell>
        <mxCell id="ofv0AlbbvvJIHnWM1D2y-94" value="Nahrát testovacího kodu specifickému úkolu" style="rounded=0;whiteSpace=wrap;html=1;" vertex="1" parent="1">
          <mxGeometry x="1380" y="410" width="250" height="30" as="geometry" />
        </mxCell>
        <mxCell id="ofv0AlbbvvJIHnWM1D2y-95" style="rounded=0;orthogonalLoop=1;jettySize=auto;html=1;exitX=1;exitY=0.5;exitDx=0;exitDy=0;entryX=-0.005;entryY=0.589;entryDx=0;entryDy=0;entryPerimeter=0;" edge="1" parent="1" source="ofv0AlbbvvJIHnWM1D2y-93" target="ofv0AlbbvvJIHnWM1D2y-94">
          <mxGeometry relative="1" as="geometry" />
        </mxCell>
        <mxCell id="ofv0AlbbvvJIHnWM1D2y-96" style="rounded=0;orthogonalLoop=1;jettySize=auto;html=1;exitX=1;exitY=0.5;exitDx=0;exitDy=0;entryX=0;entryY=0.5;entryDx=0;entryDy=0;" edge="1" parent="1" source="ofv0AlbbvvJIHnWM1D2y-97" target="ofv0AlbbvvJIHnWM1D2y-98">
          <mxGeometry relative="1" as="geometry" />
        </mxCell>
        <mxCell id="ofv0AlbbvvJIHnWM1D2y-112" style="rounded=0;orthogonalLoop=1;jettySize=auto;html=1;exitX=1;exitY=0.5;exitDx=0;exitDy=0;entryX=0;entryY=0.5;entryDx=0;entryDy=0;" edge="1" parent="1" source="ofv0AlbbvvJIHnWM1D2y-97" target="ofv0AlbbvvJIHnWM1D2y-111">
          <mxGeometry relative="1" as="geometry" />
        </mxCell>
        <mxCell id="ofv0AlbbvvJIHnWM1D2y-97" value="&lt;b&gt;Smazat&lt;/b&gt;" style="rounded=0;whiteSpace=wrap;html=1;" vertex="1" parent="1">
          <mxGeometry x="1200" y="625" width="120" height="20" as="geometry" />
        </mxCell>
        <mxCell id="ofv0AlbbvvJIHnWM1D2y-98" value="Smazat testovaci kod" style="rounded=0;whiteSpace=wrap;html=1;" vertex="1" parent="1">
          <mxGeometry x="1400" y="610" width="140" height="20" as="geometry" />
        </mxCell>
        <mxCell id="ofv0AlbbvvJIHnWM1D2y-99" value="&lt;h1&gt;Vysvětlivky k UserCase&lt;/h1&gt;&lt;p&gt;&lt;br&gt;&lt;/p&gt;" style="text;html=1;spacing=5;spacingTop=-20;whiteSpace=wrap;overflow=hidden;rounded=0;" vertex="1" parent="1">
          <mxGeometry x="890" y="680" width="290" height="40" as="geometry" />
        </mxCell>
        <mxCell id="ofv0AlbbvvJIHnWM1D2y-100" value="&lt;div style=&quot;text-align: justify;&quot;&gt;&lt;span style=&quot;background-color: initial;&quot;&gt;Funkce &lt;b&gt;Zobrazení&lt;/b&gt;&amp;nbsp;umožnujě uživateli se podívat na úkoly rozdělené podle podskupin, největší rozdělovací množinou je Group, nejmenší jednotlivý úkol Task.&lt;/span&gt;&lt;/div&gt;" style="text;html=1;align=left;verticalAlign=top;whiteSpace=wrap;rounded=0;" vertex="1" parent="1">
          <mxGeometry x="890" y="720" width="300" height="50" as="geometry" />
        </mxCell>
        <mxCell id="ofv0AlbbvvJIHnWM1D2y-101" value="&lt;div style=&quot;text-align: justify;&quot;&gt;&lt;span style=&quot;font-weight: normal;&quot;&gt;Funkce &lt;/span&gt;Nahrát&lt;span style=&quot;font-weight: normal;&quot;&gt;&amp;nbsp;umožnujě uživateli nahrát řešení k specifickému úkolu.&amp;nbsp;&lt;/span&gt;&lt;/div&gt;" style="text;html=1;align=left;verticalAlign=top;whiteSpace=wrap;rounded=0;fontStyle=1" vertex="1" parent="1">
          <mxGeometry x="890" y="780" width="300" height="50" as="geometry" />
        </mxCell>
        <mxCell id="ofv0AlbbvvJIHnWM1D2y-102" value="&lt;div style=&quot;text-align: justify;&quot;&gt;&lt;span style=&quot;font-weight: normal;&quot;&gt;Funkce &lt;/span&gt;Smazat&amp;nbsp;&lt;span style=&quot;font-weight: normal;&quot;&gt;umožnujě uživateli smazat řešení k specifickému úkolu.&amp;nbsp;&lt;/span&gt;&lt;/div&gt;" style="text;html=1;align=left;verticalAlign=top;whiteSpace=wrap;rounded=0;fontStyle=1" vertex="1" parent="1">
          <mxGeometry x="890" y="830" width="300" height="40" as="geometry" />
        </mxCell>
        <mxCell id="ofv0AlbbvvJIHnWM1D2y-103" value="&lt;h1&gt;Admin Case&lt;/h1&gt;&lt;p&gt;Diagram znázorňuje veškeré možné administrátorské funkce.&lt;/p&gt;" style="text;html=1;spacing=5;spacingTop=-20;whiteSpace=wrap;overflow=hidden;rounded=0;" vertex="1" parent="1">
          <mxGeometry x="1140" y="20" width="190" height="80" as="geometry" />
        </mxCell>
        <mxCell id="ofv0AlbbvvJIHnWM1D2y-105" value="Zobrazení výsledků uživatelů podle Group, Grade, Topic Task" style="rounded=0;whiteSpace=wrap;html=1;" vertex="1" parent="1">
          <mxGeometry x="1380" y="345" width="230" height="40" as="geometry" />
        </mxCell>
        <mxCell id="ofv0AlbbvvJIHnWM1D2y-110" style="rounded=0;orthogonalLoop=1;jettySize=auto;html=1;exitX=1;exitY=0.5;exitDx=0;exitDy=0;entryX=0;entryY=0.5;entryDx=0;entryDy=0;" edge="1" parent="1" source="ofv0AlbbvvJIHnWM1D2y-108" target="ofv0AlbbvvJIHnWM1D2y-109">
          <mxGeometry relative="1" as="geometry" />
        </mxCell>
        <mxCell id="ofv0AlbbvvJIHnWM1D2y-108" value="&lt;b&gt;Vytvořit&lt;/b&gt;" style="rounded=0;whiteSpace=wrap;html=1;" vertex="1" parent="1">
          <mxGeometry x="1241" y="495" width="120" height="20" as="geometry" />
        </mxCell>
        <mxCell id="ofv0AlbbvvJIHnWM1D2y-109" value="Vytvořit úkol specifickému Topic" style="rounded=0;whiteSpace=wrap;html=1;" vertex="1" parent="1">
          <mxGeometry x="1430" y="460" width="250" height="30" as="geometry" />
        </mxCell>
        <mxCell id="ofv0AlbbvvJIHnWM1D2y-111" value="Smazat úkol specifického Topic" style="rounded=0;whiteSpace=wrap;html=1;" vertex="1" parent="1">
          <mxGeometry x="1400" y="655" width="180" height="20" as="geometry" />
        </mxCell>
        <mxCell id="ofv0AlbbvvJIHnWM1D2y-113" value="Vytvořit a přiřazovat Group, Grade, Topic skupin" style="rounded=0;whiteSpace=wrap;html=1;" vertex="1" parent="1">
          <mxGeometry x="1430" y="510" width="320" height="30" as="geometry" />
        </mxCell>
        <mxCell id="ofv0AlbbvvJIHnWM1D2y-114" style="rounded=0;orthogonalLoop=1;jettySize=auto;html=1;exitX=1;exitY=0.5;exitDx=0;exitDy=0;entryX=-0.001;entryY=0.556;entryDx=0;entryDy=0;entryPerimeter=0;" edge="1" parent="1" source="ofv0AlbbvvJIHnWM1D2y-108" target="ofv0AlbbvvJIHnWM1D2y-113">
          <mxGeometry relative="1" as="geometry" />
        </mxCell>
        <mxCell id="ofv0AlbbvvJIHnWM1D2y-115" value="&lt;div style=&quot;text-align: justify;&quot;&gt;&lt;span style=&quot;font-weight: normal;&quot;&gt;Funkce &lt;/span&gt;Vytvořit&amp;nbsp;&lt;span style=&quot;font-weight: normal;&quot;&gt;umožnujě uživateli vytvořit řešení k specifickému úkolu. Umí také vytvořit skupiny a k nim přiřadit uživatele, umí také vytvořit předefinované složky, které se přiřadí skupinám.&lt;/span&gt;&lt;/div&gt;" style="text;html=1;align=left;verticalAlign=top;whiteSpace=wrap;rounded=0;fontStyle=1" vertex="1" parent="1">
          <mxGeometry x="890" y="880" width="300" height="40" as="geometry" />
        </mxCell>
        <mxCell id="ofv0AlbbvvJIHnWM1D2y-116" value="&lt;h1&gt;Anonym Case&lt;/h1&gt;&lt;p&gt;Diagram znázorňuje veškeré možné anonymní uživatelské funkce.&lt;/p&gt;" style="text;html=1;spacing=5;spacingTop=-20;whiteSpace=wrap;overflow=hidden;rounded=0;" vertex="1" parent="1">
          <mxGeometry x="2068" y="30" width="212" height="80" as="geometry" />
        </mxCell>
        <mxCell id="ofv0AlbbvvJIHnWM1D2y-117" style="rounded=0;orthogonalLoop=1;jettySize=auto;html=1;exitX=1;exitY=0.3333333333333333;exitDx=0;exitDy=0;exitPerimeter=0;entryX=0;entryY=0.5;entryDx=0;entryDy=0;" edge="1" parent="1" source="ofv0AlbbvvJIHnWM1D2y-119" target="ofv0AlbbvvJIHnWM1D2y-122">
          <mxGeometry relative="1" as="geometry" />
        </mxCell>
        <mxCell id="ofv0AlbbvvJIHnWM1D2y-119" value="Anonym" style="shape=umlActor;verticalLabelPosition=bottom;verticalAlign=top;html=1;outlineConnect=0;" vertex="1" parent="1">
          <mxGeometry x="1990" y="155" width="30" height="60" as="geometry" />
        </mxCell>
        <mxCell id="ofv0AlbbvvJIHnWM1D2y-120" style="rounded=0;orthogonalLoop=1;jettySize=auto;html=1;exitX=1;exitY=0.25;exitDx=0;exitDy=0;entryX=0;entryY=0.5;entryDx=0;entryDy=0;" edge="1" parent="1" source="ofv0AlbbvvJIHnWM1D2y-122" target="ofv0AlbbvvJIHnWM1D2y-123">
          <mxGeometry relative="1" as="geometry" />
        </mxCell>
        <mxCell id="ofv0AlbbvvJIHnWM1D2y-122" value="&lt;b&gt;Základní anonym funkce&lt;/b&gt;" style="rounded=0;whiteSpace=wrap;html=1;" vertex="1" parent="1">
          <mxGeometry x="2090" y="155" width="120" height="30" as="geometry" />
        </mxCell>
        <mxCell id="ofv0AlbbvvJIHnWM1D2y-123" value="&lt;font style=&quot;font-size: 10px;&quot;&gt;Přihlášení se přes OAuth2&lt;/font&gt;" style="rounded=0;whiteSpace=wrap;html=1;" vertex="1" parent="1">
          <mxGeometry x="2260" y="160" width="120" height="20" as="geometry" />
        </mxCell>
      </root>
    </mxGraphModel>
  </diagram>
</mxfile>
